<svg width="64" height="83" viewBox="0 0 64 83" fill="none" xmlns="http://www.w3.org/2000/svg">
<g opacity="0.5">
<path d="M21.4055 74.4993C21.4055 74.4993 21.2803 76.4645 21.2803 78.5695C21.2803 81.2277 21.4194 82.8898 21.4194 82.8898L27.1017 82.8951C27.1017 82.8951 27.1924 82.6926 27.1924 82.3844C27.1924 82.0867 27.1071 81.876 27.1071 81.876L23.0526 81.8745C23.0172 81.5939 22.912 80.6523 22.8928 79.0385L26.1085 79.0392C26.1085 79.0392 26.1837 78.7727 26.1822 78.507C26.1814 78.2509 26.1115 78.0187 26.1115 78.0187H22.8928C22.9089 76.4935 23.0042 75.7729 23.048 75.5184H27.1064C27.1064 75.5184 27.1932 75.3166 27.1932 75.0077C27.1932 74.7092 27.1071 74.4986 27.1071 74.4986L21.4055 74.4993ZM36.8602 74.4993C36.8602 74.4993 36.7235 74.6809 36.7204 75.0196C36.7181 75.2988 36.8456 75.6159 36.8456 75.6159C36.8456 75.6159 37.8742 75.528 39.3292 75.5057V82.8951C39.3292 82.8951 39.6511 83 40.1166 83C40.5814 83 40.904 82.8943 40.904 82.8943V75.5057C42.3613 75.528 43.3914 75.6159 43.3914 75.6159C43.3914 75.6159 43.519 75.2988 43.5167 75.0196C43.5128 74.6809 43.3768 74.4993 43.3768 74.4993H36.8602ZM17.7773 74.4971C16.2962 75.5653 15.1885 77.4344 14.7598 78.2338C14.2098 77.2572 13.1013 75.5221 11.6471 74.4993C11.6471 74.4993 11.2976 74.3959 10.8935 74.3959C10.4894 74.3959 10.1161 74.4986 10.1161 74.4986C10.1161 74.4986 9.97165 75.6181 9.97165 78.1482C9.97165 80.7974 10.103 82.8779 10.103 82.8779C10.103 82.8779 10.3542 82.9814 10.6961 82.9814C11.0195 82.9814 11.2845 82.8779 11.2845 82.8779C11.2845 82.8779 11.1593 80.1089 11.1593 77.7492C11.1593 77.1307 11.1662 76.5597 11.18 76.0536C12.1034 76.7644 13.6367 78.4705 14.1891 80.3724L14.1914 80.3843L14.2021 80.3888C14.2067 80.391 14.3258 80.4483 14.577 80.4483C14.8282 80.4483 14.9427 80.391 14.9596 80.3761C15.9943 77.779 17.361 76.2761 17.8196 75.8213C17.8465 76.4607 17.8603 77.2386 17.8603 78.1341C17.8603 80.7505 17.7251 82.8779 17.7251 82.8779C17.7251 82.8779 18.0669 82.9814 18.5325 82.9814C18.9988 82.9814 19.3322 82.8779 19.3322 82.8779C19.3322 82.8779 19.462 80.8116 19.462 78.1341C19.462 75.5109 19.3237 74.4986 19.3237 74.4986C19.3237 74.4986 18.9711 74.3959 18.5317 74.3959C18.0915 74.3959 17.7973 74.4896 17.7773 74.4971ZM33.5592 74.4993L33.5616 78.0559C33.2089 78.5085 32.5468 78.8129 31.9138 78.8129C31.4052 78.8129 30.9435 78.6261 30.5794 78.2725C29.5031 77.2289 30.7353 74.5648 30.7476 74.538C30.6608 74.4643 30.276 74.3959 29.8895 74.3959C29.4309 74.3959 29.2043 74.4375 29.1044 74.4695C29.1044 74.4695 28.0927 77.1716 28.9377 78.6313C29.4217 79.4665 30.4296 80.0076 31.5058 80.0076C32.2602 80.0076 32.9846 79.7404 33.5531 79.2536L33.5562 82.8965C33.5585 82.8973 33.8973 83 34.3413 83C34.6194 83 34.8936 82.9613 35.131 82.8965V74.5001C35.131 74.5001 34.8629 74.3966 34.3443 74.3966C33.8258 74.3959 33.5592 74.4993 33.5592 74.4993ZM46.6294 82.0227V78.8196C46.6863 78.7638 46.8745 78.6067 47.2977 78.504C47.4529 78.4661 47.6734 78.4445 47.9039 78.4445C48.2411 78.4445 48.5599 78.4914 48.8011 78.5725C49.5125 78.8144 49.7844 79.305 49.8866 79.6734C50.0494 80.2563 49.8973 80.9642 49.5186 81.3959C49.3611 81.5745 48.9156 81.8514 48.6198 81.9214C48.0982 82.045 47.7671 82.0457 47.3822 82.0472L47.2017 82.0487C47.0166 82.0494 46.8245 82.0405 46.6294 82.0227ZM45.0485 74.4993V82.8325C45.0485 82.8325 45.9565 82.965 47.4076 82.965C48.2649 82.965 48.9087 82.8913 49.4356 82.735C49.5778 82.6933 49.7406 82.6286 49.7429 82.6286C50.8176 82.1931 51.5129 80.9924 51.3638 79.8357C51.3093 79.2 51.0143 78.6105 50.5111 78.1318C49.8228 77.4761 48.9394 77.3391 48.3187 77.3391C48.0851 77.3391 47.8462 77.3584 47.6104 77.3949C47.1664 77.4664 46.8176 77.619 46.6302 77.7172L46.6294 74.4993C46.6294 74.4993 46.2384 74.3959 45.8397 74.3959C45.4548 74.3959 45.0485 74.4993 45.0485 74.4993ZM52.1866 74.4986V82.8943C52.1866 82.8943 52.4562 82.9993 52.9786 82.9993C53.4702 82.9993 53.7691 82.8958 53.7691 82.8958V74.4993C53.7691 74.4993 53.5017 74.3959 52.9786 74.3959C52.4992 74.3959 52.1866 74.4986 52.1866 74.4986ZM24.9508 63.7573C24.9508 63.7581 24.9516 63.7611 24.9516 63.7588C24.9508 63.7573 24.9508 63.7573 24.9508 63.7573ZM53.2021 69.7249C53.166 69.4198 53.0592 68.3977 53.0408 66.7579C53.3204 66.7534 53.5885 66.7505 53.839 66.7505C54.5665 66.7505 55.0865 66.772 55.3861 66.8167C56.1705 66.9336 56.5223 67.6028 56.5223 68.2146C56.5223 68.8853 55.9577 69.5761 55.3377 69.6624C54.9444 69.7175 54.2492 69.7294 53.736 69.7294C53.5071 69.7294 53.3151 69.7264 53.2021 69.7249ZM53.04 65.8349C53.0562 64.2278 53.1606 63.4268 53.1983 63.1916C53.3581 63.1857 53.6554 63.1753 53.9826 63.1753C54.4643 63.1753 54.843 63.1961 55.1073 63.2355C55.9208 63.3561 55.9846 64.2382 55.9846 64.5054C55.9846 65.0548 55.6327 65.6972 55.0643 65.7761C54.717 65.8252 53.892 65.8356 53.2597 65.8356L53.04 65.8349ZM51.5705 62.2381C51.5705 62.2381 51.4291 63.6516 51.4291 66.3142C51.4291 68.962 51.5689 70.6398 51.5689 70.6398H55.264C56.8519 70.6398 58.0956 69.5381 58.0956 68.129C58.0956 67.0073 57.2152 66.3641 56.8042 66.1244C57.0132 65.9175 57.4418 65.3875 57.4418 64.5173C57.4418 63.4135 56.6145 62.2388 55.0835 62.2388L51.5705 62.2381ZM25.288 62.2374C25.288 62.2374 25.1513 62.4212 25.1482 62.7614C25.1451 63.0413 25.2742 63.3606 25.2742 63.3606C25.2742 63.3606 26.3074 63.2713 27.7709 63.2504V70.6383C27.7709 70.6383 28.1027 70.7418 28.5729 70.7418C29.0438 70.7418 29.3541 70.6383 29.3541 70.6383V63.2504C30.8198 63.2713 31.8546 63.3606 31.8546 63.3606C31.8546 63.3606 31.9829 63.0413 31.9798 62.7614C31.9775 62.4212 31.84 62.2374 31.84 62.2374H25.288ZM35.787 66.4289C35.4098 66.3567 35.184 66.286 35.0749 66.2458V63.2847C35.3184 63.2616 35.5566 63.2504 35.7863 63.2504C36.6082 63.2504 37.2428 63.3934 37.6722 63.6762C37.855 63.7968 38.1101 64.0737 38.2046 64.3119C38.3067 64.5709 38.3221 64.8895 38.2499 65.2334C38.1308 65.8014 37.769 66.213 37.2574 66.3656C36.9485 66.4594 36.6144 66.478 36.3885 66.478C36.1727 66.4795 35.9537 66.4601 35.787 66.4289ZM34.1945 62.2374L33.4932 62.2917V70.6383C33.4932 70.6383 33.8688 70.7395 34.2537 70.7395C34.6386 70.7395 35.0757 70.639 35.0757 70.639L35.0749 67.3363C35.2239 67.3869 35.6119 67.5082 36.0966 67.5841C36.3409 67.6236 36.5836 67.6437 36.8195 67.6437C37.5861 67.6437 38.2383 67.4442 38.7561 67.0527C38.7868 67.0326 39.4844 66.5346 39.731 65.7158C40.122 64.4124 39.4206 62.9691 38.1669 62.4986C37.5923 62.2828 36.8356 62.1778 35.8546 62.1778C35.1195 62.1785 34.5456 62.2098 34.1945 62.2374ZM7.62479 66.4393C7.62479 64.865 8.81013 63.1105 10.514 63.1105C12.2163 63.1105 13.4024 64.8642 13.4024 66.4393C13.4024 68.0144 12.2163 69.7689 10.514 69.7689C8.81089 69.7689 7.62479 68.0136 7.62479 66.4393ZM5.93782 66.4393C5.93782 68.8607 7.94744 70.7566 10.514 70.7566C13.079 70.7566 15.0894 68.8607 15.0894 66.4393C15.0894 64.0186 13.0798 62.1227 10.514 62.1227C7.94744 62.1227 5.93782 64.0186 5.93782 66.4393ZM16.1979 66.4393C16.1979 68.8607 18.2075 70.7566 20.7733 70.7566C22.9627 70.7566 24.2294 69.2627 24.4092 69.0118C24.4092 69.0118 24.2947 68.7722 23.9129 68.4878C23.6157 68.2645 23.2469 68.1551 23.2431 68.1543C23.2031 68.2734 22.3865 69.6929 20.7725 69.6929C19.3775 69.6929 17.8841 68.3858 17.8841 66.4393C17.8841 64.4928 19.3775 63.1849 20.7725 63.1849C22.4142 63.1849 23.1063 64.5047 23.1809 64.6707C23.1809 64.6707 23.5565 64.5531 23.8523 64.3327C24.2341 64.0469 24.3454 63.8199 24.3493 63.8102C24.251 63.6621 23.0195 62.1227 20.7718 62.1227C18.2068 62.1227 16.1979 64.0186 16.1979 66.4393ZM42.6255 66.4393C42.6255 64.865 43.8116 63.1105 45.5147 63.1105C47.2178 63.1105 48.4032 64.8642 48.4032 66.4393C48.4032 68.0144 47.2178 69.7689 45.5147 69.7689C43.8116 69.7689 42.6255 68.0136 42.6255 66.4393ZM40.9386 66.4393C40.9386 68.8607 42.949 70.7566 45.5147 70.7566C48.0805 70.7566 50.0909 68.8607 50.0909 66.4393C50.0909 64.0186 48.0805 62.1227 45.5147 62.1227C42.949 62.1227 40.9386 64.0186 40.9386 66.4393ZM6.07226 39.5155C5.07206 43.9065 3.03326 48.9377 0.101037 52.1415C-0.135568 52.399 0.0695411 52.7802 0.445191 52.7802H12.148C12.5244 52.7802 12.7295 52.3983 12.4929 52.1415C9.56066 48.9377 7.52185 43.9065 6.52166 39.5155C6.49016 39.3815 6.39337 39.316 6.29734 39.316C6.19978 39.316 6.10222 39.3838 6.07226 39.5155ZM23.2077 39.5155C22.2068 43.9065 20.1687 48.9377 17.2358 52.1415C16.9999 52.399 17.2035 52.7802 17.5799 52.7802H29.2834C29.6599 52.7802 29.8634 52.3983 29.6284 52.1415C26.6954 48.9377 24.6573 43.9065 23.6571 39.5155C23.6249 39.3815 23.5296 39.316 23.4336 39.316C23.3345 39.316 23.2369 39.3838 23.2077 39.5155ZM40.3425 39.5155C39.3423 43.9065 37.3027 48.9377 34.3705 52.1415C34.1346 52.399 34.339 52.7802 34.7162 52.7802H46.4189C46.7961 52.7802 46.9997 52.3983 46.7638 52.1415C43.8316 48.9377 41.7928 43.9065 40.7926 39.5155C40.7604 39.3815 40.6651 39.316 40.5683 39.316C40.47 39.316 40.3716 39.3838 40.3425 39.5155ZM57.4772 39.5155C56.4777 43.9065 54.4389 48.9377 51.5059 52.1415C51.2701 52.399 51.4752 52.7802 51.8516 52.7802H63.5544C63.9308 52.7802 64.1352 52.3983 63.8993 52.1415C60.9663 48.9377 58.9268 43.9065 57.9273 39.5155C57.8951 39.3815 57.799 39.316 57.703 39.316C57.6055 39.316 57.5071 39.3838 57.4772 39.5155ZM20.4422 17.8194C19.2146 23.2124 16.7111 29.3899 13.1097 33.3239C12.8201 33.6402 13.0713 34.1099 13.5338 34.1099H27.9037C28.3662 34.1099 28.6174 33.6402 28.3278 33.3239C24.7265 29.3899 22.2229 23.2124 20.9953 17.8194C20.9569 17.6564 20.8386 17.5768 20.7195 17.5768C20.5997 17.5768 20.4783 17.6594 20.4422 17.8194ZM43.005 17.8194C41.7767 23.2124 39.2739 29.3899 35.6718 33.3239C35.3822 33.6402 35.6342 34.1099 36.0958 34.1099H50.4666C50.929 34.1099 51.1795 33.6402 50.8899 33.3239C47.2885 29.3899 44.7842 23.2124 43.5574 17.8194C43.519 17.6564 43.3991 17.5768 43.2816 17.5768C43.161 17.5768 43.0411 17.6594 43.005 17.8194ZM31.7755 0.198746C30.7753 4.58977 28.7357 9.62021 25.8043 12.8247C25.5669 13.083 25.7728 13.4641 26.1484 13.4641H37.8512C38.2276 13.4641 38.4312 13.0823 38.1953 12.8247C35.2631 9.62021 33.2243 4.58977 32.2233 0.198746C32.1918 0.06476 32.0966 0 31.9998 0C31.9022 0 31.8047 0.0677375 31.7755 0.198746Z" fill="#979DA5"/>
</g>
</svg>
